<mxfile host="app.diagrams.net" modified="2023-01-13T14:04:48.666Z" agent="5.0 (X11; Linux x86_64) AppleWebKit/537.36 (KHTML, like Gecko) Chrome/108.0.0.0 Safari/537.36" etag="LzypgKzwwYa6BTkueWpy" version="20.8.5" type="github">
  <diagram id="k76ryEIm_YTQEEgROJZa" name="Page-1">
    <mxGraphModel dx="1360" dy="775" grid="1" gridSize="10" guides="1" tooltips="1" connect="1" arrows="1" fold="1" page="1" pageScale="1" pageWidth="827" pageHeight="1169" math="0" shadow="0">
      <root>
        <mxCell id="0" />
        <mxCell id="1" parent="0" />
        <mxCell id="hdjzuRKUstXomJ2-e3ao-53" style="edgeStyle=orthogonalEdgeStyle;rounded=0;orthogonalLoop=1;jettySize=auto;html=1;exitX=0.5;exitY=1;exitDx=0;exitDy=0;entryX=0.5;entryY=0;entryDx=0;entryDy=0;fontSize=10;" parent="1" source="hdjzuRKUstXomJ2-e3ao-50" edge="1">
          <mxGeometry relative="1" as="geometry">
            <Array as="points">
              <mxPoint x="414" y="750" />
              <mxPoint x="235" y="750" />
              <mxPoint x="235" y="480" />
            </Array>
            <mxPoint x="414" y="480" as="targetPoint" />
          </mxGeometry>
        </mxCell>
        <mxCell id="I33Yapyme5dKVXicGY-A-16" style="edgeStyle=orthogonalEdgeStyle;rounded=0;orthogonalLoop=1;jettySize=auto;html=1;exitX=0.5;exitY=1;exitDx=0;exitDy=0;entryX=0.5;entryY=0;entryDx=0;entryDy=0;" edge="1" parent="1" source="I33Yapyme5dKVXicGY-A-2">
          <mxGeometry relative="1" as="geometry">
            <mxPoint x="413.5" y="220" as="targetPoint" />
          </mxGeometry>
        </mxCell>
        <mxCell id="I33Yapyme5dKVXicGY-A-2" value="L’utilisateur entre au moins 3 caractères dans la&lt;br&gt;barre de recherche principale." style="rounded=1;whiteSpace=wrap;html=1;" vertex="1" parent="1">
          <mxGeometry x="353" y="100" width="120" height="80" as="geometry" />
        </mxCell>
        <mxCell id="I33Yapyme5dKVXicGY-A-18" style="edgeStyle=orthogonalEdgeStyle;rounded=0;orthogonalLoop=1;jettySize=auto;html=1;exitX=0.5;exitY=1;exitDx=0;exitDy=0;entryX=0.5;entryY=0;entryDx=0;entryDy=0;" edge="1" parent="1" source="I33Yapyme5dKVXicGY-A-17" target="I33Yapyme5dKVXicGY-A-2">
          <mxGeometry relative="1" as="geometry" />
        </mxCell>
        <mxCell id="I33Yapyme5dKVXicGY-A-17" value="wait" style="rounded=1;whiteSpace=wrap;html=1;" vertex="1" parent="1">
          <mxGeometry x="353" width="120" height="60" as="geometry" />
        </mxCell>
        <mxCell id="I33Yapyme5dKVXicGY-A-21" style="edgeStyle=orthogonalEdgeStyle;rounded=0;orthogonalLoop=1;jettySize=auto;html=1;exitX=0.5;exitY=1;exitDx=0;exitDy=0;entryX=0.5;entryY=0;entryDx=0;entryDy=0;" edge="1" parent="1" source="I33Yapyme5dKVXicGY-A-19" target="I33Yapyme5dKVXicGY-A-20">
          <mxGeometry relative="1" as="geometry" />
        </mxCell>
        <mxCell id="I33Yapyme5dKVXicGY-A-19" value="compteur = 0" style="rounded=1;whiteSpace=wrap;html=1;" vertex="1" parent="1">
          <mxGeometry x="353" y="220" width="120" height="30" as="geometry" />
        </mxCell>
        <mxCell id="I33Yapyme5dKVXicGY-A-22" style="edgeStyle=orthogonalEdgeStyle;rounded=0;orthogonalLoop=1;jettySize=auto;html=1;exitX=0.5;exitY=1;exitDx=0;exitDy=0;" edge="1" parent="1" source="I33Yapyme5dKVXicGY-A-20">
          <mxGeometry relative="1" as="geometry">
            <mxPoint x="413.7241379310344" y="410" as="targetPoint" />
          </mxGeometry>
        </mxCell>
        <mxCell id="I33Yapyme5dKVXicGY-A-24" value="oui" style="edgeLabel;html=1;align=center;verticalAlign=middle;resizable=0;points=[];" vertex="1" connectable="0" parent="I33Yapyme5dKVXicGY-A-22">
          <mxGeometry x="-0.2971" y="-1" relative="1" as="geometry">
            <mxPoint as="offset" />
          </mxGeometry>
        </mxCell>
        <mxCell id="I33Yapyme5dKVXicGY-A-42" style="edgeStyle=orthogonalEdgeStyle;rounded=0;orthogonalLoop=1;jettySize=auto;html=1;exitX=1;exitY=0.5;exitDx=0;exitDy=0;entryX=0.5;entryY=0;entryDx=0;entryDy=0;" edge="1" parent="1" source="I33Yapyme5dKVXicGY-A-20" target="I33Yapyme5dKVXicGY-A-41">
          <mxGeometry relative="1" as="geometry">
            <Array as="points">
              <mxPoint x="510" y="330" />
              <mxPoint x="510" y="700" />
              <mxPoint x="413" y="700" />
            </Array>
          </mxGeometry>
        </mxCell>
        <mxCell id="I33Yapyme5dKVXicGY-A-43" value="non&lt;br&gt;" style="edgeLabel;html=1;align=center;verticalAlign=middle;resizable=0;points=[];" vertex="1" connectable="0" parent="I33Yapyme5dKVXicGY-A-42">
          <mxGeometry x="-0.9802" relative="1" as="geometry">
            <mxPoint x="6" as="offset" />
          </mxGeometry>
        </mxCell>
        <mxCell id="I33Yapyme5dKVXicGY-A-20" value="compteur &amp;lt;&amp;nbsp;&lt;br&gt;nb de données&amp;nbsp;&lt;br&gt;testés" style="rhombus;whiteSpace=wrap;html=1;" vertex="1" parent="1">
          <mxGeometry x="348" y="290" width="130.75" height="80" as="geometry" />
        </mxCell>
        <mxCell id="I33Yapyme5dKVXicGY-A-26" style="edgeStyle=orthogonalEdgeStyle;rounded=0;orthogonalLoop=1;jettySize=auto;html=1;exitX=0.5;exitY=1;exitDx=0;exitDy=0;entryX=0.5;entryY=0;entryDx=0;entryDy=0;" edge="1" parent="1" source="I33Yapyme5dKVXicGY-A-23" target="I33Yapyme5dKVXicGY-A-25">
          <mxGeometry relative="1" as="geometry" />
        </mxCell>
        <mxCell id="I33Yapyme5dKVXicGY-A-27" value="oui&lt;br&gt;" style="edgeLabel;html=1;align=center;verticalAlign=middle;resizable=0;points=[];" vertex="1" connectable="0" parent="I33Yapyme5dKVXicGY-A-26">
          <mxGeometry x="-0.2573" relative="1" as="geometry">
            <mxPoint as="offset" />
          </mxGeometry>
        </mxCell>
        <mxCell id="I33Yapyme5dKVXicGY-A-38" style="edgeStyle=orthogonalEdgeStyle;rounded=0;orthogonalLoop=1;jettySize=auto;html=1;exitX=0;exitY=0.5;exitDx=0;exitDy=0;entryX=0;entryY=0.5;entryDx=0;entryDy=0;" edge="1" parent="1" source="I33Yapyme5dKVXicGY-A-23" target="I33Yapyme5dKVXicGY-A-36">
          <mxGeometry relative="1" as="geometry">
            <Array as="points">
              <mxPoint x="310" y="450" />
              <mxPoint x="310" y="645" />
            </Array>
          </mxGeometry>
        </mxCell>
        <mxCell id="I33Yapyme5dKVXicGY-A-39" value="non" style="edgeLabel;html=1;align=center;verticalAlign=middle;resizable=0;points=[];" vertex="1" connectable="0" parent="I33Yapyme5dKVXicGY-A-38">
          <mxGeometry x="-0.9477" relative="1" as="geometry">
            <mxPoint x="-12" as="offset" />
          </mxGeometry>
        </mxCell>
        <mxCell id="I33Yapyme5dKVXicGY-A-23" value="contenus de &lt;br&gt;l&#39;input et la données corresponde" style="rhombus;whiteSpace=wrap;html=1;" vertex="1" parent="1">
          <mxGeometry x="349" y="410" width="128.5" height="80" as="geometry" />
        </mxCell>
        <mxCell id="I33Yapyme5dKVXicGY-A-37" style="edgeStyle=orthogonalEdgeStyle;rounded=0;orthogonalLoop=1;jettySize=auto;html=1;exitX=0.5;exitY=1;exitDx=0;exitDy=0;entryX=0.5;entryY=0;entryDx=0;entryDy=0;" edge="1" parent="1" source="I33Yapyme5dKVXicGY-A-25" target="I33Yapyme5dKVXicGY-A-36">
          <mxGeometry relative="1" as="geometry" />
        </mxCell>
        <mxCell id="I33Yapyme5dKVXicGY-A-25" value="Ajout de la recettes a la nouvelle liste de recette" style="rounded=1;whiteSpace=wrap;html=1;" vertex="1" parent="1">
          <mxGeometry x="353" y="530" width="120" height="60" as="geometry" />
        </mxCell>
        <mxCell id="I33Yapyme5dKVXicGY-A-40" style="edgeStyle=orthogonalEdgeStyle;rounded=0;orthogonalLoop=1;jettySize=auto;html=1;exitX=0.5;exitY=1;exitDx=0;exitDy=0;entryX=0;entryY=0.5;entryDx=0;entryDy=0;" edge="1" parent="1" source="I33Yapyme5dKVXicGY-A-36" target="I33Yapyme5dKVXicGY-A-20">
          <mxGeometry relative="1" as="geometry">
            <Array as="points">
              <mxPoint x="413" y="680" />
              <mxPoint x="300" y="680" />
              <mxPoint x="300" y="330" />
            </Array>
          </mxGeometry>
        </mxCell>
        <mxCell id="I33Yapyme5dKVXicGY-A-36" value="compteur = compteur + 1" style="rounded=1;whiteSpace=wrap;html=1;" vertex="1" parent="1">
          <mxGeometry x="353" y="630" width="120" height="30" as="geometry" />
        </mxCell>
        <mxCell id="I33Yapyme5dKVXicGY-A-44" style="edgeStyle=orthogonalEdgeStyle;rounded=0;orthogonalLoop=1;jettySize=auto;html=1;exitX=0.5;exitY=1;exitDx=0;exitDy=0;" edge="1" parent="1" source="I33Yapyme5dKVXicGY-A-41">
          <mxGeometry relative="1" as="geometry">
            <mxPoint x="413.2857142857142" y="840" as="targetPoint" />
          </mxGeometry>
        </mxCell>
        <mxCell id="I33Yapyme5dKVXicGY-A-45" value="oui" style="edgeLabel;html=1;align=center;verticalAlign=middle;resizable=0;points=[];" vertex="1" connectable="0" parent="I33Yapyme5dKVXicGY-A-44">
          <mxGeometry x="-0.2793" relative="1" as="geometry">
            <mxPoint as="offset" />
          </mxGeometry>
        </mxCell>
        <mxCell id="I33Yapyme5dKVXicGY-A-48" style="edgeStyle=orthogonalEdgeStyle;rounded=0;orthogonalLoop=1;jettySize=auto;html=1;exitX=1;exitY=0.5;exitDx=0;exitDy=0;entryX=0.5;entryY=0;entryDx=0;entryDy=0;" edge="1" parent="1" source="I33Yapyme5dKVXicGY-A-41" target="I33Yapyme5dKVXicGY-A-47">
          <mxGeometry relative="1" as="geometry" />
        </mxCell>
        <mxCell id="I33Yapyme5dKVXicGY-A-49" value="non" style="edgeLabel;html=1;align=center;verticalAlign=middle;resizable=0;points=[];" vertex="1" connectable="0" parent="I33Yapyme5dKVXicGY-A-48">
          <mxGeometry x="-0.3197" y="1" relative="1" as="geometry">
            <mxPoint x="-37" y="1" as="offset" />
          </mxGeometry>
        </mxCell>
        <mxCell id="I33Yapyme5dKVXicGY-A-41" value="taille de la nouvelle &lt;br&gt;list &amp;gt; 0&amp;nbsp;" style="rhombus;whiteSpace=wrap;html=1;" vertex="1" parent="1">
          <mxGeometry x="348" y="720" width="130.75" height="80" as="geometry" />
        </mxCell>
        <mxCell id="I33Yapyme5dKVXicGY-A-46" value="mise a jour de l&#39;interface" style="rounded=1;whiteSpace=wrap;html=1;" vertex="1" parent="1">
          <mxGeometry x="353.38" y="840" width="120" height="60" as="geometry" />
        </mxCell>
        <mxCell id="I33Yapyme5dKVXicGY-A-47" value="Affichage &quot;Aucune recette correspondante&quot;" style="rounded=1;whiteSpace=wrap;html=1;" vertex="1" parent="1">
          <mxGeometry x="510" y="840" width="120" height="60" as="geometry" />
        </mxCell>
      </root>
    </mxGraphModel>
  </diagram>
</mxfile>
